<svg xmlns="http://www.w3.org/2000/svg" viewBox="0 0 24 24" width="24" height="24">
  <path fill="none" d="M0 0h24v24H0z"/>
  <path d="M15 8v1h2.293L11.75 15.243a1 1 0 0 1-1.498-1.32L14.77 9H15a1 1 0 0 1 0 2h-.13l-1 1H15a1 1 0 0 1 0 2h-1V13a1 1 0 0 1-1-1V8a1 1 0 0 1 1-1zm4.938-5a10.015 10.015 0 0 1 4.156 4.938 10.015 10.015 0 0 1-4.938 4.156A9.987 9.987 0 0 1 10 18c-2.953 0-5.535-1.313-7.313-3.375L.344 14.28C1.882 17.223 5.22 19 9 19c4.963 0 9-4.037 9-9a8.99 8.99 0 0 0-.437-2.562l1.875-1.031A10.015 10.015 0 0 1 19.937 3z"/>
</svg>

